<svg width="397" height="189" viewBox="0 0 397 189" fill="none" xmlns="http://www.w3.org/2000/svg">
<path d="M61.3147 30.8784L70.0024 30.0487L70.8321 38.7364L62.1443 39.5661L61.3147 30.8784ZM62.1443 39.5661L70.8321 38.7364L71.6617 47.4242L62.974 48.2538L62.1443 39.5661ZM62.974 48.2538L71.6617 47.4242L72.4914 56.1119L63.8036 56.9416L62.974 48.2538ZM63.8036 56.9416L72.4914 56.1119L73.3211 64.7997L64.6333 65.6293L63.8036 56.9416ZM55.9456 66.459L64.6333 65.6293L65.463 74.3171L56.7752 75.1467L55.9456 66.459ZM79.4944 37.9092L88.1821 37.0795L89.0118 45.7673L80.324 46.597L79.4944 37.9092ZM80.324 46.597L89.0118 45.7673L89.8414 54.455L81.1537 55.2847L80.324 46.597ZM81.1537 55.2847L89.8414 54.455L90.6711 63.1428L81.9834 63.9725L81.1537 55.2847ZM90.6711 63.1428L99.3588 62.3131L100.189 71.0009L91.5008 71.8305L90.6711 63.1428ZM99.3588 62.3131L108.047 61.4835L108.876 70.1712L100.189 71.0009L99.3588 62.3131ZM98.5292 53.6254L107.217 52.7957L108.047 61.4835L99.3588 62.3131L98.5292 53.6254ZM97.6995 44.9376L106.387 44.108L107.217 52.7957L98.5292 53.6254L97.6995 44.9376ZM96.8699 36.2499L105.558 35.4202L106.387 44.108L97.6995 44.9376L96.8699 36.2499ZM131.587 32.9345L140.275 32.1048L141.104 40.7926L132.417 41.6222L131.587 32.9345ZM122.899 33.7641L131.587 32.9345L132.417 41.6222L123.729 42.4519L122.899 33.7641ZM115.041 43.2816L123.729 42.4519L124.558 51.1396L115.871 51.9693L115.041 43.2816ZM133.246 50.31L141.934 49.4803L142.764 58.1681L134.076 58.9977L133.246 50.31ZM134.076 58.9977L142.764 58.1681L143.593 66.8558L134.906 67.6855L134.076 58.9977ZM116.7 60.657L125.388 59.8274L126.218 68.5151L117.53 69.3448L116.7 60.657ZM114.211 34.5938L122.899 33.7641L123.729 42.4519L115.041 43.2816L114.211 34.5938ZM125.388 59.8274L134.076 58.9977L134.906 67.6855L126.218 68.5151L125.388 59.8274ZM148.099 22.5907L156.787 21.761L157.616 30.4487L148.928 31.2784L148.099 22.5907ZM148.928 31.2784L157.616 30.4487L158.446 39.1365L149.758 39.9662L148.928 31.2784ZM149.758 39.9662L158.446 39.1365L159.276 47.8242L150.588 48.6539L149.758 39.9662ZM150.588 48.6539L159.276 47.8242L160.105 56.512L151.417 57.3416L150.588 48.6539ZM151.417 57.3416L160.105 56.512L160.935 65.1997L152.247 66.0294L151.417 57.3416ZM160.105 56.512L168.793 55.6823L169.623 64.3701L160.935 65.1997L160.105 56.512ZM157.616 30.4487L166.304 29.6191L167.134 38.3068L158.446 39.1365L157.616 30.4487ZM192.342 27.1325L201.03 26.3029L201.859 34.9906L193.171 35.8203L192.342 27.1325ZM193.171 35.8203L201.859 34.9906L202.689 43.6784L194.001 44.508L193.171 35.8203ZM194.001 44.508L202.689 43.6784L203.518 52.3661L194.831 53.1958L194.001 44.508ZM194.831 53.1958L203.518 52.3661L204.348 61.0539L195.66 61.8835L194.831 53.1958ZM183.654 27.9622L192.342 27.1325L193.171 35.8203L184.484 36.6499L183.654 27.9622ZM186.143 54.0254L194.831 53.1958L195.66 61.8835L186.973 62.7132L186.143 54.0254ZM175.796 37.4796L184.484 36.6499L185.313 45.3377L176.626 46.1674L175.796 37.4796ZM176.626 46.1674L185.313 45.3377L186.143 54.0254L177.455 54.8551L176.626 46.1674ZM208.854 16.7887L217.541 15.959L218.371 24.6468L209.683 25.4765L208.854 16.7887ZM209.683 25.4765L218.371 24.6468L219.201 33.3345L210.513 34.1642L209.683 25.4765ZM210.513 34.1642L219.201 33.3345L220.03 42.0223L211.343 42.8519L210.513 34.1642ZM211.343 42.8519L220.03 42.0223L220.86 50.71L212.172 51.5397L211.343 42.8519ZM212.172 51.5397L220.86 50.71L221.69 59.3978L213.002 60.2274L212.172 51.5397ZM217.541 15.959L226.229 15.1294L227.059 23.8171L218.371 24.6468L217.541 15.959ZM226.229 15.1294L234.917 14.2997L235.747 22.9875L227.059 23.8171L226.229 15.1294ZM227.059 23.8171L235.747 22.9875L236.576 31.6752L227.888 32.5049L227.059 23.8171ZM228.718 41.1926L237.406 40.363L238.236 49.0507L229.548 49.8804L228.718 41.1926ZM229.548 49.8804L238.236 49.0507L239.065 57.7385L230.377 58.5681L229.548 49.8804ZM220.86 50.71L229.548 49.8804L230.377 58.5681L221.69 59.3978L220.86 50.71ZM219.201 33.3345L227.888 32.5049L228.718 41.1926L220.03 42.0223L219.201 33.3345ZM253.088 21.3314L261.776 20.5017L262.606 29.1895L253.918 30.0191L253.088 21.3314ZM262.606 29.1895L271.293 28.3598L272.123 37.0476L263.435 37.8772L262.606 29.1895ZM245.23 30.8488L253.918 30.0191L254.747 38.7069L246.06 39.5365L245.23 30.8488ZM263.435 37.8772L272.123 37.0476L272.953 45.7353L264.265 46.565L263.435 37.8772ZM254.747 38.7069L263.435 37.8772L264.265 46.565L255.577 47.3946L254.747 38.7069ZM246.06 39.5365L254.747 38.7069L255.577 47.3946L246.889 48.2243L246.06 39.5365ZM246.889 48.2243L255.577 47.3946L256.407 56.0824L247.719 56.912L246.889 48.2243ZM256.407 56.0824L265.095 55.2527L265.924 63.9405L257.236 64.7701L256.407 56.0824ZM279.117 18.8457L287.805 18.016L288.635 26.7037L279.947 27.5334L279.117 18.8457ZM279.947 27.5334L288.635 26.7037L289.464 35.3915L280.777 36.2211L279.947 27.5334ZM280.777 36.2211L289.464 35.3915L290.294 44.0792L281.606 44.9089L280.777 36.2211ZM281.606 44.9089L290.294 44.0792L291.124 52.767L282.436 53.5966L281.606 44.9089ZM287.805 18.016L296.493 17.1863L297.323 25.8741L288.635 26.7037L287.805 18.016ZM322.531 14.6998L331.218 13.8701L332.048 22.5579L323.36 23.3875L322.531 14.6998ZM323.36 23.3875L332.048 22.5579L332.878 31.2456L324.19 32.0753L323.36 23.3875ZM324.19 32.0753L332.878 31.2456L333.707 39.9334L325.02 40.763L324.19 32.0753ZM325.02 40.763L333.707 39.9334L334.537 48.6211L325.849 49.4508L325.02 40.763ZM313.843 15.5294L322.531 14.6998L323.36 23.3875L314.673 24.2172L313.843 15.5294ZM316.332 41.5927L325.02 40.763L325.849 49.4508L317.162 50.2804L316.332 41.5927ZM305.985 25.0468L314.673 24.2172L315.502 32.9049L306.815 33.7346L305.985 25.0468ZM306.815 33.7346L315.502 32.9049L316.332 41.5927L307.644 42.4223L306.815 33.7346ZM171.04 79.3943L179.728 78.5646L180.558 87.2523L171.87 88.082L171.04 79.3943ZM188.416 77.7349L197.104 76.9053L197.933 85.593L189.245 86.4227L188.416 77.7349ZM173.529 105.458L182.217 104.628L183.047 113.316L174.359 114.145L173.529 105.458ZM190.905 103.798L199.592 102.969L200.422 111.656L191.734 112.486L190.905 103.798ZM181.387 95.9401L190.075 95.1104L190.905 103.798L182.217 104.628L181.387 95.9401ZM180.558 87.2523L189.245 86.4227L190.075 95.1104L181.387 95.9401L180.558 87.2523ZM10.0579 136.228L18.7456 135.399L19.5753 144.086L10.8875 144.916L10.0579 136.228ZM10.8875 144.916L19.5753 144.086L20.4049 152.774L11.7172 153.604L10.8875 144.916ZM11.7172 153.604L20.4049 152.774L21.2346 161.462L12.5468 162.291L11.7172 153.604ZM12.5468 162.291L21.2346 161.462L22.0643 170.15L13.3765 170.979L12.5468 162.291ZM13.3765 170.979L22.0643 170.15L22.8939 178.837L14.2062 179.667L13.3765 170.979ZM19.5753 144.086L28.263 143.257L29.0927 151.944L20.4049 152.774L19.5753 144.086ZM29.0927 151.944L37.7804 151.115L38.6101 159.802L29.9223 160.632L29.0927 151.944ZM29.9223 160.632L38.6101 159.802L39.4397 168.49L30.752 169.32L29.9223 160.632ZM22.0643 170.15L30.752 169.32L31.5817 178.008L22.8939 178.837L22.0643 170.15ZM54.2923 140.771L62.9801 139.941L63.8097 148.629L55.122 149.459L54.2923 140.771ZM63.8097 148.629L72.4975 147.799L73.3271 156.487L64.6394 157.317L63.8097 148.629ZM46.4342 150.288L55.122 149.459L55.9516 158.146L47.2639 158.976L46.4342 150.288ZM64.6394 157.317L73.3271 156.487L74.1568 165.175L65.4691 166.004L64.6394 157.317ZM55.9516 158.146L64.6394 157.317L65.4691 166.004L56.7813 166.834L55.9516 158.146ZM47.2639 158.976L55.9516 158.146L56.7813 166.834L48.0936 167.664L47.2639 158.976ZM48.0936 167.664L56.7813 166.834L57.611 175.522L48.9232 176.352L48.0936 167.664ZM57.611 175.522L66.2987 174.692L67.1284 183.38L58.4406 184.21L57.611 175.522ZM80.3216 138.285L89.0094 137.456L89.839 146.143L81.1513 146.973L80.3216 138.285ZM81.1513 146.973L89.839 146.143L90.6687 154.831L81.981 155.661L81.1513 146.973ZM81.981 155.661L90.6687 154.831L91.4984 163.519L82.8106 164.348L81.981 155.661ZM82.8106 164.348L91.4984 163.519L92.328 172.206L83.6403 173.036L82.8106 164.348ZM89.0094 137.456L97.6971 136.626L98.5268 145.314L89.839 146.143L89.0094 137.456ZM123.735 134.139L132.423 133.31L133.252 141.997L124.565 142.827L123.735 134.139ZM124.565 142.827L133.252 141.997L134.082 150.685L125.394 151.515L124.565 142.827ZM125.394 151.515L134.082 150.685L134.912 159.373L126.224 160.203L125.394 151.515ZM126.224 160.203L134.912 159.373L135.741 168.061L127.054 168.89L126.224 160.203ZM115.047 134.969L123.735 134.139L124.565 142.827L115.877 143.657L115.047 134.969ZM117.536 161.032L126.224 160.203L127.054 168.89L118.366 169.72L117.536 161.032ZM107.189 144.486L115.877 143.657L116.706 152.344L108.019 153.174L107.189 144.486ZM108.019 153.174L116.706 152.344L117.536 161.032L108.848 161.862L108.019 153.174ZM167.114 129.997L175.802 129.167L176.632 137.855L167.944 138.684L167.114 129.997ZM167.944 138.684L176.632 137.855L177.461 146.542L168.774 147.372L167.944 138.684ZM168.774 147.372L177.461 146.542L178.291 155.23L169.603 156.06L168.774 147.372ZM169.603 156.06L178.291 155.23L179.121 163.918L170.433 164.748L169.603 156.06ZM170.433 164.748L179.121 163.918L179.95 172.606L171.263 173.435L170.433 164.748ZM175.802 129.167L184.49 128.337L185.319 137.025L176.632 137.855L175.802 129.167ZM185.319 137.025L194.007 136.195L194.837 144.883L186.149 145.713L185.319 137.025ZM186.149 145.713L194.837 144.883L195.666 153.571L186.979 154.401L186.149 145.713ZM178.291 155.23L186.979 154.401L187.808 163.088L179.121 163.918L178.291 155.23ZM201.831 126.681L210.519 125.852L211.349 134.539L202.661 135.369L201.831 126.681ZM202.661 135.369L211.349 134.539L212.178 143.227L203.491 144.057L202.661 135.369ZM203.491 144.057L212.178 143.227L213.008 151.915L204.32 152.745L203.491 144.057ZM213.008 151.915L221.696 151.085L222.525 159.773L213.838 160.603L213.008 151.915ZM221.696 151.085L230.384 150.256L231.213 158.943L222.525 159.773L221.696 151.085ZM220.866 142.397L229.554 141.568L230.384 150.256L221.696 151.085L220.866 142.397ZM220.036 133.71L228.724 132.88L229.554 141.568L220.866 142.397L220.036 133.71ZM219.207 125.022L227.895 124.192L228.724 132.88L220.036 133.71L219.207 125.022ZM236.548 123.366L245.236 122.536L246.066 131.224L237.378 132.054L236.548 123.366ZM237.378 132.054L246.066 131.224L246.895 139.912L238.208 140.741L237.378 132.054ZM238.208 140.741L246.895 139.912L247.725 148.599L239.037 149.429L238.208 140.741ZM239.037 149.429L247.725 148.599L248.555 157.287L239.867 158.117L239.037 149.429ZM239.867 158.117L248.555 157.287L249.384 165.975L240.697 166.805L239.867 158.117ZM245.236 122.536L253.924 121.707L254.754 130.394L246.066 131.224L245.236 122.536ZM254.754 130.394L263.441 129.565L264.271 138.252L255.583 139.082L254.754 130.394ZM255.583 139.082L264.271 138.252L265.101 146.94L256.413 147.77L255.583 139.082ZM247.725 148.599L256.413 147.77L257.243 156.458L248.555 157.287L247.725 148.599ZM271.265 120.05L279.953 119.221L280.783 127.909L272.095 128.738L271.265 120.05ZM272.095 128.738L280.783 127.909L281.612 136.596L272.925 137.426L272.095 128.738ZM272.925 137.426L281.612 136.596L282.442 145.284L273.754 146.114L272.925 137.426ZM273.754 146.114L282.442 145.284L283.272 153.972L274.584 154.801L273.754 146.114ZM274.584 154.801L283.272 153.972L284.101 162.66L275.414 163.489L274.584 154.801ZM279.953 119.221L288.641 118.391L289.471 127.079L280.783 127.909L279.953 119.221ZM289.471 127.079L298.158 126.249L298.988 134.937L290.3 135.767L289.471 127.079ZM290.3 135.767L298.988 134.937L299.818 143.625L291.13 144.454L290.3 135.767ZM282.442 145.284L291.13 144.454L291.96 153.142L283.272 153.972L282.442 145.284ZM314.67 115.905L323.358 115.076L324.188 123.763L315.5 124.593L314.67 115.905ZM324.188 123.763L332.875 122.934L333.705 131.622L325.017 132.451L324.188 123.763ZM306.812 125.423L315.5 124.593L316.33 133.281L307.642 134.111L306.812 125.423ZM325.017 132.451L333.705 131.622L334.535 140.309L325.847 141.139L325.017 132.451ZM316.33 133.281L325.017 132.451L325.847 141.139L317.159 141.969L316.33 133.281ZM307.642 134.111L316.33 133.281L317.159 141.969L308.471 142.798L307.642 134.111ZM308.471 142.798L317.159 141.969L317.989 150.656L309.301 151.486L308.471 142.798ZM317.989 150.656L326.677 149.827L327.506 158.514L318.819 159.344L317.989 150.656ZM339.87 104.732L348.558 103.902L349.387 112.59L340.7 113.42L339.87 104.732ZM340.7 113.42L349.387 112.59L350.217 121.278L341.529 122.107L340.7 113.42ZM341.529 122.107L350.217 121.278L351.047 129.965L342.359 130.795L341.529 122.107ZM342.359 130.795L351.047 129.965L351.876 138.653L343.189 139.483L342.359 130.795ZM343.189 139.483L351.876 138.653L352.706 147.341L344.018 148.171L343.189 139.483ZM351.876 138.653L360.564 137.824L361.394 146.511L352.706 147.341L351.876 138.653ZM349.387 112.59L358.075 111.76L358.905 120.448L350.217 121.278L349.387 112.59ZM384.113 109.274L392.801 108.444L393.63 117.132L384.942 117.962L384.113 109.274ZM375.425 110.103L384.113 109.274L384.942 117.962L376.255 118.791L375.425 110.103ZM367.567 119.621L376.255 118.791L377.084 127.479L368.397 128.309L367.567 119.621ZM385.772 126.649L394.46 125.82L395.29 134.507L386.602 135.337L385.772 126.649ZM386.602 135.337L395.29 134.507L396.119 143.195L387.431 144.025L386.602 135.337ZM369.226 136.996L377.914 136.167L378.744 144.854L370.056 145.684L369.226 136.996ZM366.737 110.933L375.425 110.103L376.255 118.791L367.567 119.621L366.737 110.933ZM377.914 136.167L386.602 135.337L387.431 144.025L378.744 144.854L377.914 136.167Z" fill="black"/>
</svg>
