<svg width="141" height="41" viewBox="0 0 141 41" fill="none" xmlns="http://www.w3.org/2000/svg">
<path d="M1.29399 11.013C1.15106 11.0257 1.20856 11.0691 1.30445 11.1248C1.46206 11.2164 1.41723 11.1977 1.71021 11.2039C2.79217 11.2267 3.88077 11.1245 4.95904 11.0523C5.26 11.0322 6.15718 10.928 5.86168 10.9884C5.75757 11.0097 5.67421 11.0766 5.60123 11.1502C5.22388 11.5304 5.1756 11.988 5.11103 12.505C4.97394 13.603 4.97447 14.6594 4.99878 15.7637C5.00805 16.1844 5.1862 17.0076 4.99507 17.4118C4.79707 17.8307 4.12834 17.8596 3.7468 17.9474C3.01767 18.115 2.27471 18.2191 1.57467 18.4912C1.03396 18.7014 1.57559 18.5495 1.81865 18.4898" stroke="black" stroke-width="2.10199" stroke-linecap="round"/>
<path d="M10.121 6.28191C10.107 5.6445 10.1141 7.55709 10.0991 8.19449C10.0721 9.34452 10.0422 10.4945 10.0151 11.6445C10.0073 11.9759 9.93188 12.8138 9.99051 13.2531C10.0054 13.3647 10.115 13.3453 10.2044 13.3364C10.8331 13.2741 11.4125 12.7338 12.0112 12.5526C12.6215 12.3679 13.2983 12.4171 13.8928 12.6232C14.1733 12.7204 14.6029 12.9968 14.3479 12.5811C13.8424 11.7567 13.582 10.8769 13.4733 9.92028C13.3756 9.06086 13.335 8.12667 13.4388 7.2649C13.4571 7.11325 13.5998 6.59821 13.449 7.00067" stroke="black" stroke-width="2.10199" stroke-linecap="round"/>
<path d="M25.2272 2.49481C23.6453 2.52964 22.0023 3.14096 20.4776 3.52344C20.326 3.56148 19.8156 3.62797 19.8621 3.90901C20.0199 4.86304 20.8937 5.68533 21.6252 6.22631C22.1404 6.60733 22.7034 6.9468 23.2447 7.2907C23.4212 7.40281 23.6485 7.59008 23.8643 7.63307C24.0257 7.66523 24.7104 7.25556 24.5122 7.62681C24.0424 8.50682 23.7899 9.4877 23.6025 10.459C23.5416 10.7745 23.2748 11.7065 22.8376 11.6919C22.6128 11.6844 22.3065 11.4913 22.0956 11.4202C21.6143 11.258 21.1322 11.1755 20.6323 11.0924C20.3274 11.0417 20.0095 10.9963 19.7015 10.9689C19.5741 10.9576 19.9574 10.9633 20.0854 10.9604" stroke="black" stroke-width="2.10199" stroke-linecap="round"/>
<path d="M28.7665 6.23153C30.523 6.02018 32.3186 5.9373 34.0874 5.89835" stroke="black" stroke-width="2.10199" stroke-linecap="round"/>
<path d="M31.4348 6.46143C31.1818 8.67412 30.8967 10.8896 30.7171 13.1096C30.7083 13.2189 30.8077 12.9097 30.8545 12.8105" stroke="black" stroke-width="2.10199" stroke-linecap="round"/>
<path d="M33.3915 16.7157C33.5582 16.5024 33.6823 16.1574 33.8105 15.9424C34.7554 14.3569 35.7382 12.7924 36.7269 11.234C37.0341 10.7498 37.39 10.1411 37.7686 9.67096C37.8687 9.54654 38.0626 9.36219 38.2023 9.5694C38.5342 10.0615 38.6079 10.8399 38.7109 11.4103C38.9217 12.5781 39.169 13.7611 39.3286 14.9369C39.3957 15.4317 39.4056 15.9255 39.4373 16.4226C39.4506 16.6315 39.5459 16.8721 39.5158 17.0809C39.507 17.1418 38.4967 16.7737 38.3525 16.7505C37.6395 16.6357 36.8947 16.7106 36.1758 16.7264C35.7447 16.7359 35.7586 16.7039 36.1231 16.5115" stroke="black" stroke-width="2.10199" stroke-linecap="round"/>
<path d="M35.3368 13.6477C34.961 13.5262 35.4407 13.6047 35.5524 13.627C35.6891 13.6542 35.8579 13.6397 35.9887 13.6414C36.8653 13.6526 37.7422 13.6695 38.6182 13.7035C38.8793 13.7136 39.6609 13.7605 39.3997 13.7663C39.3576 13.7672 39.3293 13.7242 39.2983 13.7045" stroke="black" stroke-width="2.10199" stroke-linecap="round"/>
<path d="M4.22427 26.4295C4.05262 26.4279 3.82316 26.3743 4.11074 26.36C5.31492 26.3 6.47818 26.2888 7.69723 26.465C8.14807 26.5302 8.52342 26.5208 8.2672 26.9165C8.17653 27.0565 8.07397 27.1834 7.97196 27.315C7.70724 27.6564 7.48562 28.0524 7.25623 28.4188C7.03754 28.7681 6.8305 29.1741 6.53821 29.4187C6.4758 29.4709 6.34132 29.4989 6.50069 29.5315C7.0178 29.6371 7.52268 29.7918 8.0298 29.9418C8.69345 30.1382 9.07675 30.2662 8.71179 30.9389C8.43886 31.4419 8.15915 32.2725 7.6887 32.6175C7.10134 33.0482 6.16982 33.227 5.45436 33.2427C5.08518 33.2508 4.71601 33.259 4.34684 33.2671C3.95606 33.2757 4.01265 33.1686 4.00389 32.7706" stroke="black" stroke-width="2.10199" stroke-linecap="round"/>
<path d="M4.26172 24.7734C4.4799 27.7761 4.79965 30.7728 5.1078 33.7673C5.15864 34.2613 5.26698 34.8461 5.21072 35.3531C5.16507 35.7644 5.12457 34.5289 5.11546 34.1151" stroke="black" stroke-width="2.10199" stroke-linecap="round"/>
<path d="M17.5759 31.0297C17.5321 31.2294 17.5121 31.4035 17.5166 31.607" stroke="black" stroke-width="2.10199" stroke-linecap="round"/>
<path d="M17.6673 31.8955C16.8354 32.0209 15.9965 32.0693 15.1611 32.1627C15.0478 32.1754 14.962 32.2026 14.8672 32.2612C14.7007 32.3642 14.7983 32.9977 14.771 33.1594C14.6371 33.9528 14.2739 34.682 14.1782 35.4846C14.1189 35.9807 14.0959 36.4716 14.1069 36.9702C14.1083 37.0356 14.0762 37.2808 14.1581 37.2971C14.5111 37.3674 14.8746 37.4474 15.2237 37.5496C15.869 37.7387 16.5322 37.9093 17.1871 38.0624C17.2667 38.0811 17.7516 38.3096 17.5909 38.2335" stroke="black" stroke-width="2.10199" stroke-linecap="round"/>
<path d="M14.2812 34.9922C15.4328 34.9668 16.5857 34.9867 17.7373 34.9881" stroke="black" stroke-width="2.10199" stroke-linecap="round"/>
<path d="M23.7176 31.9766C22.8527 31.9957 25.4414 32.1273 26.3028 32.2077C26.9278 32.2661 27.8538 32.2443 28.4806 32.4638C28.5603 32.4917 28.6077 32.6255 28.6217 32.6967C28.6639 32.9114 28.5689 33.1192 28.4953 33.3155C27.9146 34.8656 26.662 35.9308 24.9993 36.0486C24.7338 36.0674 24.4659 36.0644 24.1998 36.0702C24.1594 36.0711 23.8197 36.0786 24.0239 36.0741C24.6805 36.0596 25.2589 36.2861 25.8427 36.5621C26.4702 36.8588 27.1045 37.1726 27.6031 37.6674C27.6675 37.7312 27.8018 37.9671 27.7363 37.9044C27.6438 37.8158 27.5791 37.6216 27.5116 37.5094" stroke="black" stroke-width="2.10199" stroke-linecap="round"/>
<path d="M23.8555 31.6836C24.1146 33.8953 24.2944 36.1351 24.3745 38.3605C24.3893 38.7722 24.3343 39.0791 24.2589 39.4671C24.1565 39.9935 24.2151 38.9981 24.2299 38.8757" stroke="black" stroke-width="2.10199" stroke-linecap="round"/>
<path d="M33.7422 33.7674C34.309 32.5646 35.5827 29.3907 36.7018 28.4284C37.7524 27.525 38.245 29.3766 38.5168 30.245C38.6846 30.7812 38.9055 31.2813 39.0684 31.8204C39.3235 32.6651 39.4816 33.5029 39.6734 34.3687C39.6908 34.4471 39.9354 35.499 39.7893 35.0819C39.6814 34.7739 39.5488 34.7051 39.3163 34.7102" stroke="black" stroke-width="2.10199" stroke-linecap="round"/>
<path d="M34.7349 31.9924C35.8778 31.8905 37.0423 31.9881 38.1858 32.0961C38.3847 32.1149 38.376 32.1157 38.4688 32.2907" stroke="black" stroke-width="2.10199" stroke-linecap="round"/>
<path d="M45.1641 18.1797C48.5044 22.506 52.4282 26.4524 56.6716 28.8838" stroke="black" stroke-width="2.10199" stroke-linecap="round"/>
<path d="M47.5009 28.5002C48.7484 25.8845 50.5384 23.4955 52.3775 21.6263C53.0608 20.9318 53.355 21.2939 53.9534 21.7356" stroke="black" stroke-width="2.10199" stroke-linecap="round"/>
<path d="M59.8906 9.76953C60.0125 12.63 60.5625 15.0606 61.0607 17.7521C61.7617 21.5387 62.4555 25.331 63.1576 29.1166C63.2256 29.4828 63.9183 34.1235 64.3634 34.9524C64.5535 35.3066 64.1111 33.9929 64.0466 33.4676C63.7005 30.6493 63.3508 26.5461 64.4738 24.3768C66.0333 21.364 69.1735 22.2587 70.1537 26.9735C71.1799 31.9096 67.1208 37.1233 65.3385 34.6169" stroke="black" stroke-width="2.10199" stroke-linecap="round"/>
<path d="M75.1212 24.0272C75.1855 24.7686 75.5811 22.9475 75.7472 22.3082C76.3829 19.8604 78.9955 10.7633 77.1201 8.21624C75.9509 6.62818 75.5354 10.339 75.2839 12.0345C74.3992 17.996 74.6976 25.1538 76.2169 30.7192C77.4251 35.1455 78.9069 37.9671 80.6712 33.8217" stroke="black" stroke-width="2.10199" stroke-linecap="round"/>
<path d="M87.8746 12.2056C85.9196 12.2487 81.7501 15.6543 82.8236 21.375C83.4865 24.9074 86.0218 25.5124 87.2288 23.5295C87.4853 23.1081 88.0088 21.1946 87.4688 22.6603C86.8477 24.3461 86.506 27.7669 86.3559 29.8842C86.2025 32.0467 85.9439 34.9467 86.104 37.1677C86.2124 38.6702 86.4289 38.5133 86.5172 37.211" stroke="black" stroke-width="2.10199" stroke-linecap="round"/>
<path d="M87.6211 8.89062C87.7545 14.9493 88.3471 20.9794 88.9426 26.9275C89.1478 28.9768 89.29 31.1715 89.8565 32.9119" stroke="black" stroke-width="2.10199" stroke-linecap="round"/>
<path d="M95.3876 16.5791C93.695 17.0839 90.9623 30.7776 93.5579 30.7204C94.9898 30.6889 96.7209 28.5151 96.6438 25.012" stroke="black" stroke-width="2.10199" stroke-linecap="round"/>
<path d="M95.7799 16.163C94.6472 16.3432 98.4501 30.0762 99.1482 32.5251" stroke="black" stroke-width="2.10199" stroke-linecap="round"/>
<path d="M98.7188 13.1367C101.057 13.2294 103.408 13.9765 105.742 13.9251" stroke="black" stroke-width="2.10199" stroke-linecap="round"/>
<path d="M102.338 4.12006C102.532 12.9223 102.501 21.7247 102.694 30.518" stroke="black" stroke-width="2.10199" stroke-linecap="round"/>
<path d="M110.453 30.6612C110.273 31.7113 108.649 29.8964 108.443 29.6087C107.285 27.9908 105.947 25.2071 106.557 21.8422C107.2 18.2865 109.387 17.7097 110.881 18.9005C112.19 19.9446 113.949 22.6791 113.209 26.3179C112.897 27.852 111.85 28.5735 111.185 28.9738C110.77 29.2239 109.965 28.897 109.794 29.7356" stroke="black" stroke-width="2.10199" stroke-linecap="round"/>
<path d="M119.814 5.12627C121.005 9.79426 120.914 15.4067 120.957 20.5686C120.977 22.9074 120.992 27.3475 120.095 29.1864C119.06 31.3089 117.569 29.5943 116.784 27.4767C116.091 25.6074 116.431 22.7902 117.219 21.4636C118.638 19.0746 119.546 20.2799 121.038 22.0873" stroke="black" stroke-width="2.10199" stroke-linecap="round"/>
<path d="M124.932 5.01515C126.408 11.4018 127.636 18.1245 127.773 25.2779C127.816 27.5318 127.539 28.3256 126.804 29.752C126.052 31.2127 124.112 33.0571 123.077 31.6676C122.445 30.8194 122.222 27.5985 122.555 26.2834C123.308 23.3088 125.766 23.6192 127.053 23.827" stroke="black" stroke-width="2.10199" stroke-linecap="round"/>
<path d="M132.104 10.6485C133.566 10.6163 136.913 8.17303 137.438 12.6142C137.841 16.0261 133.97 20.8622 133.036 22.7885C132.049 24.8225 132.276 28.0435 133.428 29.8366C135.274 32.7097 137.438 30.7059 139.122 28.7738" stroke="black" stroke-width="2.10199" stroke-linecap="round"/>
</svg>
