<svg width="97" height="102" viewBox="0 0 97 102" fill="none" xmlns="http://www.w3.org/2000/svg">
<path d="M19.4302 98.1369C20.0967 98.1112 21.0027 93.8609 21.1909 93.2851C22.1587 90.3252 23.0529 87.3357 24.2573 84.4607C26.3303 79.5124 29.2879 74.9724 32.1375 70.4447C34.1067 67.3157 35.9551 64.3674 38.4519 61.6423C39.6344 60.3516 40.576 59.0581 41.4181 57.5676" stroke="black" stroke-width="6.79584" stroke-linecap="round"/>
<path d="M3.40837 17.409C7.58796 24.1054 14.4626 28.947 20.5246 33.8133C24.7586 37.2123 28.8128 40.523 32.2807 44.7199C35.1212 48.1573 38.2673 51.2566 41.3171 54.4996C44.0003 57.3529 46.2709 60.5625 48.985 63.3868C50.0001 64.4431 51.1843 65.3479 52.0786 66.5146C52.735 67.3709 53.3323 68.2582 54.0295 69.085C55.728 71.0992 57.5429 72.7993 59.578 74.4558C62.6775 76.9788 65.9527 79.4171 68.6655 82.3501C70.2728 84.088 72.3922 85.3339 74.7602 85.7029C75.706 85.8503 76.0243 85.1736 76.8681 84.8369C79.7591 83.6834 82.7614 83.3424 85.8225 82.9447C87.9053 82.674 89.988 82.4034 92.0707 82.1328C93.0459 82.0061 92.6784 81.3764 92.5642 80.4973C92.3117 78.5541 91.4335 76.7035 90.085 75.2628C88.8282 73.9203 86.9406 73.0761 85.5042 71.9069C81.0357 68.2697 76.3271 64.7789 72.2103 60.7333C70.0582 58.6184 68.0666 56.3669 65.843 54.3188C63.84 52.4739 62.2905 50.3599 60.5085 48.3167C57.5344 44.9066 54.361 41.8011 51.2034 38.5719C49.4937 36.8234 47.77 35.0898 46.0603 33.3419C44.4476 31.6932 42.4662 30.4292 40.764 28.8606C37.475 25.8299 33.7813 23.2443 30.4282 20.2973C28.2755 18.4053 26.1137 16.4511 24.043 14.5342C22.4863 13.0931 18.9592 13.7487 17.1061 13.9895C14.848 14.2829 12.5898 14.5763 10.3317 14.8697C8.5039 15.1072 6.59184 15.1943 4.83749 15.7886" stroke="black" stroke-width="6.79584" stroke-linecap="round"/>
<path d="M52.0674 38.555C52.5252 36.2927 53.0408 34.0375 53.7687 31.8436C54.7193 28.9789 56.4814 26.4855 57.9485 23.8765C59.9995 20.2293 61.5958 16.1895 64.0952 12.8186C65.6052 10.782 67.6129 9.19422 68.8567 6.96206C69.498 5.81093 70.3093 4.67872 70.8806 3.52223" stroke="black" stroke-width="6.79584" stroke-linecap="round"/>
</svg>
